<?xml version="1.0" encoding="iso-8859-1"?>
<!-- Uploaded to: SVG Repo, www.svgrepo.com, Generator: SVG Repo Mixer Tools -->
<!DOCTYPE svg PUBLIC "-//W3C//DTD SVG 1.1//EN" "http://www.w3.org/Graphics/SVG/1.1/DTD/svg11.dtd">
<svg fill="#000000" height="800px" width="800px" version="1.1" id="Capa_1" xmlns="http://www.w3.org/2000/svg" xmlns:xlink="http://www.w3.org/1999/xlink" 
	 viewBox="0 0 295.125 295.125" xml:space="preserve">
<path d="M240.486,140.472c-3.153-29.173-9.471-64.05-22.144-87.076c-7.444-13.53-23.32-19.863-37.747-15.061
	c-10.228,3.404-16.59,11.197-17.914,21.942c-0.507,4.11,2.415,7.854,6.526,8.36c4.103,0.521,7.854-2.414,8.36-6.526
	c0.619-5.019,3.014-7.963,7.766-9.544c7.557-2.519,15.913,0.874,19.868,8.061c4.088,7.429,7.46,16.381,10.246,26.078
	c-35.127,1.24-65.132,6.097-89.797,15.108l-17.024-43.081l11.476-2.834c3.682-0.909,6.105-4.197,5.647-7.962
	c-0.458-3.764-3.653-6.368-7.445-6.368H59.34c-6.85,0-12.215,4.376-12.215,10.25c0,9.093,9.348,16.103,21.28,16.103
	c2.054,0,4.104-0.275,6.092-0.706c0.069-0.016,0.14-0.059,0.209-0.077l19.348-4.793c0.086,0.425,0.203,0.841,0.367,1.259
	l17.372,44.162c-15.808,7.405-28.982,16.766-39.466,28.066c-1.527,1.646-2.951,3.297-4.299,4.949
	c-2.312-0.354-4.663-0.591-7.054-0.667c-16.896-0.527-32.673,5.891-44.342,17.939C5.411,169.638-0.484,184.911,0.031,201.058
	c0.99,31.023,26.066,56.1,57.09,57.09c0.646,0.021,1.285,0.031,1.926,0.031c16.129,0,31.193-6.383,42.418-17.971
	c9.733-10.049,15.452-22.876,16.462-36.64h36.659c2.481,0,4.802-1.239,6.198-3.29c1.397-2.051,1.689-4.672,0.781-6.98L131.132,115.9
	c23.777-8.635,53.219-13.36,88.108-14.014c2.833,13.076,4.81,26.732,6.191,39.385c-27.492,5.03-48.401,29.145-48.401,58.068
	c0,32.559,26.488,59.047,59.048,59.047c32.559,0,59.047-26.488,59.047-59.047C295.125,168.263,270.992,142.737,240.486,140.472z
	 M74.176,157.768c13.623,4.997,24.111,16.541,27.632,30.8H62.555C63.476,181.549,66.213,170.081,74.176,157.768z M90.69,229.772
	c-8.709,8.991-20.478,13.776-33.091,13.384c-23.136-0.738-41.838-19.44-42.576-42.576c-0.385-12.052,4.013-23.448,12.383-32.09
	c8.197-8.463,19.142-13.192,30.887-13.388c-12.08,21.749-11.213,40.397-11.156,41.397c0.228,3.968,3.513,7.069,7.487,7.069h48.24
	C101.889,213.409,97.682,222.553,90.69,229.772z M143.576,188.569h-26.427c-3.467-19.127-16.195-35.07-33.345-43.026
	c8.909-9.464,20.076-17.412,33.483-23.814L143.576,188.569z M236.078,243.385c-24.288,0-44.048-19.76-44.048-44.047
	c0-21.124,14.949-38.814,34.821-43.068c1.7,21.039,1.773,36.501,1.774,36.873c0.007,4.138,3.363,7.425,7.5,7.425
	c0.004,0,0.008,0,0.012,0c4.142,0,7.494-3.306,7.488-7.448c-0.002-1.528-0.072-16.777-1.715-37.464
	c21.539,2.864,38.215,21.356,38.215,43.666C280.125,223.61,260.365,243.385,236.078,243.385z"/>
</svg>